<mxfile host="app.diagrams.net" modified="2024-04-08T01:34:21.531Z" agent="Mozilla/5.0 (X11; Linux x86_64) AppleWebKit/537.36 (KHTML, like Gecko) Chrome/123.0.0.0 Safari/537.36" etag="1DyXD_2MA_EJiarVFLNP" version="24.2.1" type="github">
  <diagram name="페이지-1" id="zwdacpVIj72CtBetUWyS">
    <mxGraphModel dx="687" dy="2332" grid="0" gridSize="10" guides="1" tooltips="1" connect="1" arrows="1" fold="1" page="0" pageScale="1" pageWidth="827" pageHeight="1169" math="0" shadow="0">
      <root>
        <mxCell id="0" />
        <mxCell id="1" parent="0" />
        <mxCell id="5IderKOiHxJjELfDRAUz-4" value="" style="edgeStyle=none;curved=1;rounded=0;orthogonalLoop=1;jettySize=auto;html=1;fontSize=12;startSize=8;endSize=8;" edge="1" parent="1" source="5IderKOiHxJjELfDRAUz-1" target="5IderKOiHxJjELfDRAUz-3">
          <mxGeometry relative="1" as="geometry" />
        </mxCell>
        <mxCell id="5IderKOiHxJjELfDRAUz-1" value="" style="strokeWidth=2;html=1;shape=mxgraph.flowchart.start_2;whiteSpace=wrap;" vertex="1" parent="1">
          <mxGeometry x="223" y="-678" width="100" height="100" as="geometry" />
        </mxCell>
        <mxCell id="5IderKOiHxJjELfDRAUz-6" value="" style="edgeStyle=none;curved=1;rounded=0;orthogonalLoop=1;jettySize=auto;html=1;fontSize=12;startSize=8;endSize=8;" edge="1" parent="1" source="5IderKOiHxJjELfDRAUz-3" target="5IderKOiHxJjELfDRAUz-5">
          <mxGeometry relative="1" as="geometry" />
        </mxCell>
        <mxCell id="5IderKOiHxJjELfDRAUz-3" value="" style="whiteSpace=wrap;html=1;strokeWidth=2;" vertex="1" parent="1">
          <mxGeometry x="213" y="-529" width="120" height="60" as="geometry" />
        </mxCell>
        <mxCell id="5IderKOiHxJjELfDRAUz-8" value="" style="edgeStyle=none;curved=1;rounded=0;orthogonalLoop=1;jettySize=auto;html=1;fontSize=12;startSize=8;endSize=8;" edge="1" parent="1" source="5IderKOiHxJjELfDRAUz-5" target="5IderKOiHxJjELfDRAUz-7">
          <mxGeometry relative="1" as="geometry" />
        </mxCell>
        <mxCell id="5IderKOiHxJjELfDRAUz-5" value="" style="rhombus;whiteSpace=wrap;html=1;strokeWidth=2;" vertex="1" parent="1">
          <mxGeometry x="233" y="-404" width="80" height="80" as="geometry" />
        </mxCell>
        <mxCell id="5IderKOiHxJjELfDRAUz-7" value="" style="rhombus;whiteSpace=wrap;html=1;strokeWidth=2;" vertex="1" parent="1">
          <mxGeometry x="440" y="-404" width="80" height="80" as="geometry" />
        </mxCell>
      </root>
    </mxGraphModel>
  </diagram>
</mxfile>
